<svg id="Layer_1" data-name="Layer 1" xmlns="http://www.w3.org/2000/svg" viewBox="0 0 24 24"><defs><style>.cls-1{fill:#1f2849;}.cls-2{fill:#fff;}.cls-3{fill:#4cd764;}.cls-4{fill:none;stroke:#fff;stroke-linecap:round;stroke-miterlimit:10;stroke-width:0.62px;}</style></defs><title>emoticon-excited1</title><circle class="cls-1" cx="12.02" cy="12.09" r="10.01"/><path id="path-1" class="cls-2" d="M17.06,17.64a.4.4,0,0,1-.4-.4,4.64,4.64,0,0,0-9.29,0,.4.4,0,0,1-.8,0,5.45,5.45,0,0,1,10.89,0A.4.4,0,0,1,17.06,17.64Z"/><path id="path-2" class="cls-2" d="M12,12.44a3.16,3.16,0,1,1,3.16-3.16A3.16,3.16,0,0,1,12,12.44Zm0-5.52a2.36,2.36,0,1,0,2.36,2.36A2.36,2.36,0,0,0,12,6.93Z"/><ellipse class="cls-3" cx="18.61" cy="5.21" rx="3.34" ry="3.29"/><line class="cls-4" x1="18.61" y1="3.39" x2="18.61" y2="7.04"/><line class="cls-4" x1="16.78" y1="5.21" x2="20.43" y2="5.21"/></svg>