<svg xmlns="http://www.w3.org/2000/svg" viewBox="0 0 27.74 29.92"><defs><style>.cls-1{fill:#78748c;}</style></defs><title>alarm_icon</title><g id="Capa_2" data-name="Capa 2"><g id="Layer_1" data-name="Layer 1"><path class="cls-1" d="M26.9,1.68H21.35V.85a.85.85,0,0,0-1.69,0v.83H14.72V.85A.85.85,0,1,0,13,.85v.83H8.29V.85A.85.85,0,0,0,6.6.85v.83H.85A.85.85,0,0,0,0,2.53V21.65a.85.85,0,0,0,.85.85H7.61a6.59,6.59,0,0,1-1.86,3.43.82.82,0,0,0-.22.85.83.83,0,0,0,.65.56l3.06.53,1.36.21a3.68,3.68,0,0,0,6.39,0l1.36-.21,3.06-.53a.83.83,0,0,0,.44-1.39h0a6.9,6.9,0,0,1-2-3.44h7a.85.85,0,0,0,.85-.85V2.53A.85.85,0,0,0,26.9,1.68ZM18.07,26.23h0c-.62.11-1.18.19-1.71.26l-.68.08-.55.05H15l-.61,0c-.39,0-.77,0-1.18,0l-.53,0h-.15l-.62-.06-.67-.07c-.53-.07-1.09-.16-1.71-.26l-1.64-.28A8.28,8.28,0,0,0,9.4,21v-2.9a3.69,3.69,0,0,1,2.19-3.22,5,5,0,0,1,1-.34h.06a5.38,5.38,0,0,1,2.24,0h.06A5.25,5.25,0,0,1,16,14.9a3.61,3.61,0,0,1,2.09,3.22V21A8.28,8.28,0,0,0,19.7,26Zm8-5.43H19.73V18.13a5.18,5.18,0,0,0-3-4.72,6.36,6.36,0,0,0-.85-.33,2.11,2.11,0,0,0-4.21,0,6.57,6.57,0,0,0-.73.29,5.37,5.37,0,0,0-3.15,4.71V20.8H1.69V8.53H26.05Zm0-14H1.69V3.37H6.6v.77a.85.85,0,1,0,1.69,0V3.37H13v.77a.85.85,0,1,0,1.69,0V3.37h4.94v.77a.85.85,0,0,0,1.69,0V3.37h4.7Z"/></g></g></svg>