<svg xmlns="http://www.w3.org/2000/svg" viewBox="0 0 31.52 29.5"><defs><style>.cls-1{fill:#fff;}</style></defs><title>MenuIconSeleccionado_Emergencia</title><g id="Layer_2" data-name="Layer 2"><g id="Layer_1-2" data-name="Layer 1"><path class="cls-1" d="M21.06,23.13c-3.24-2.6-4.14-1.32-5.61.15-1,1-3.62-1.12-5.86-3.36S5.2,15.08,6.23,14.06C7.7,12.59,9,11.68,6.37,8.45S2,7.69.61,9.12c-1.64,1.64-.09,7.76,6,13.81s12.17,7.6,13.81,6C21.81,27.47,24.3,25.73,21.06,23.13Z"/><path class="cls-1" d="M16.56,11.54A2.43,2.43,0,0,0,13.9,9.16a3,3,0,0,0-2.75,1.68l1.42.95S13,11,13.73,11a.77.77,0,0,1,.84.77c0,1.12-3.37,1.64-3.37,4.51a4.76,4.76,0,0,0,.09.84h5.4V15.45H13.37C13.42,14.44,16.56,14,16.56,11.54Z"/><path class="cls-1" d="M22.82,9.29H20.49l-3,4.75V15.2h3.46v1.89h1.89V15.2h.93V13.62h-.93Zm-1.89,2.58v1.74H19.42v0l1.18-1.79A4.15,4.15,0,0,0,21,11h0A7,7,0,0,0,20.94,11.87Z"/><path class="cls-1" d="M17.47,0A14,14,0,0,0,6,6,6.89,6.89,0,0,1,7.52,7.41,12,12,0,0,1,16,2.15l1.44,2.44,1.44-2.44A12,12,0,0,1,29.37,12.6L26.93,14l2.44,1.44a12,12,0,0,1-5.49,8.67,3.65,3.65,0,0,1,.31,1.32,3.51,3.51,0,0,1-.09.94A14,14,0,0,0,17.47,0Z"/></g></g></svg>