<svg id="Layer_1" data-name="Layer 1" xmlns="http://www.w3.org/2000/svg" viewBox="0 0 24 24"><defs><style>.cls-1{fill:#e1167f;}.cls-2{fill:#4cd764;}.cls-3{fill:#fff;}</style></defs><title>emoticon-excited</title><circle class="cls-1" cx="12.05" cy="12.03" r="10.01"/><ellipse class="cls-2" cx="18.65" cy="5.26" rx="3.34" ry="3.29"/><path id="path-1" class="cls-3" d="M17.11,17.51a.4.4,0,0,1-.4-.4,4.66,4.66,0,0,0-9.32,0,.4.4,0,0,1-.8,0,5.46,5.46,0,0,1,10.93,0A.4.4,0,0,1,17.11,17.51Z"/><path id="path-2" class="cls-3" d="M12.05,12.38a3.12,3.12,0,1,1,3.17-3.12A3.15,3.15,0,0,1,12.05,12.38Zm0-5.45a2.33,2.33,0,1,0,2.36,2.33A2.35,2.35,0,0,0,12.05,6.93Z"/><g id="_Group_" data-name="&lt;Group&gt;"><path class="cls-3" d="M20.09,3.68a.17.17,0,0,1,.06.23l-.29.5a.17.17,0,0,1-.23.06h0a.17.17,0,0,1-.06-.23l.29-.5a.17.17,0,0,1,.23-.06Z"/><path class="cls-3" d="M20.08,7a.17.17,0,1,1,0,.34H17.22a.17.17,0,1,1,0-.34h0v-1a1.39,1.39,0,0,1,2.77,0V7Zm-.39,0v-1a1,1,0,0,0-2.09,0V7Z"/><path class="cls-3" d="M19.69,5.93V7H17.61v-1a1,1,0,0,1,2.09,0Z"/><path class="cls-3" d="M18.83,4a.17.17,0,0,1-.17.17h0A.17.17,0,0,1,18.48,4V3.38a.17.17,0,0,1,.17-.17h0a.17.17,0,0,1,.17.17Z"/><path class="cls-3" d="M17.75,4.24a.17.17,0,0,1-.06.23h0a.17.17,0,0,1-.24-.06l-.29-.5a.17.17,0,0,1,.06-.23h0a.17.17,0,0,1,.23.06Z"/></g></svg>