<svg xmlns="http://www.w3.org/2000/svg" viewBox="0 0 65.54 68.53"><defs><style>.cls-1{fill:#1f2849;}.cls-2{fill:#e1167f;}</style></defs><title>sin_zonas_seguras</title><g id="Capa_2" data-name="Capa 2"><g id="Layer_1" data-name="Layer 1"><path class="cls-1" d="M20.6,48.62C8.47,50.05,0,54.17,0,58.65c0,5.82,13.47,9.88,32.77,9.88s32.78-4.06,32.78-9.88c0-4.58-7.75-8.45-19.75-9.86-1.25-.17-11.58-.83-12.7-.4a1.82,1.82,0,0,0-.35.89c.08.74,4.91,2.53,12.56,3.27,11.2,1.08,16.22,4.7,16.44,6v.14c-.31,1.66-9.7,6-29,6-18,0-28.59-4-29-6V58.6c.23-1.45,6.52-5,17.26-6.22,1.13-.14,5.76-.93,6.24-1.29a1.92,1.92,0,0,0,0-2.32,10.94,10.94,0,0,0-3.31-.28C22.54,48.49,21.11,48.55,20.6,48.62Z"/><path class="cls-2" d="M48.38,6.54a22.33,22.33,0,0,0-31.58,0C9,14.3,8,28.88,14.65,37.68l17.93,25.9L50.45,37.76C57.11,28.89,56.14,14.3,48.38,6.54Zm-8.16,15.6a7.45,7.45,0,1,1-12-5.9A7.2,7.2,0,0,1,39.6,19.18,7.42,7.42,0,0,1,40.21,22.14Z"/></g></g></svg>