<svg xmlns="http://www.w3.org/2000/svg" viewBox="0 0 27.21 28.15"><defs><style>.cls-1{fill:#fff;}</style></defs><title>icon_agendadeservicios_white</title><g id="Capa_2" data-name="Capa 2"><g id="Layer_1" data-name="Layer 1"><path class="cls-1" d="M26.38,1.65H20.94V.83a.83.83,0,0,0-1.66,0v.82H14.43V.83a.83.83,0,1,0-1.66,0v.82H8.13V.83a.83.83,0,0,0-1.66,0v.82H.83A.83.83,0,0,0,0,2.48V21.23a.83.83,0,0,0,.83.83H5.92a7.89,7.89,0,0,0,15.36,0h5.09a.83.83,0,0,0,.83-.83V2.48a.83.83,0,0,0-.83-.83ZM6.47,3.31v.75a.83.83,0,0,0,1.66,0V3.31h4.64v.75a.83.83,0,1,0,1.66,0V3.31h4.85v.75a.83.83,0,0,0,1.66,0V3.31h4.61V6.7H1.66V3.31ZM13.6,26.49a6.23,6.23,0,1,1,6.23-6.23,6.24,6.24,0,0,1-6.23,6.23Zm7.89-6.09s0-.09,0-.14a7.89,7.89,0,0,0-15.78,0s0,.09,0,.14H1.66v-12H25.55v12Zm0,0"/><path class="cls-1" d="M14.43,20.47v-4a.83.83,0,1,0-1.66,0v4.36a.83.83,0,0,0,.24.59l1.91,1.91a.83.83,0,0,0,1.17-1.17Zm0,0"/></g></g></svg>