<svg xmlns="http://www.w3.org/2000/svg" viewBox="0 0 163 150.51"><defs><style>.cls-1{fill:#1f2849;}.cls-2{fill:#fff;stroke:#fff;stroke-miterlimit:10;stroke-width:3px;}.cls-3{fill:#e42d8c;}</style></defs><title>Asset 106</title><g id="Layer_2" data-name="Layer 2"><g id="Layer_1-2" data-name="Layer 1"><path class="cls-1" d="M134.69,93.9a28.31,28.31,0,1,1-28.31,28.31A28.34,28.34,0,0,1,134.69,93.9m0,9.47a18.83,18.83,0,1,0,18.84,18.84,18.85,18.85,0,0,0-18.84-18.84M124,75c3.38,0,4.41-4.06,5.86-9.36,1.87-6.81.19-8-5.86-8A8.67,8.67,0,1,0,124,75M.12,109.31A35.77,35.77,0,0,1,16.24,89.13c-.51-3-.9-8.62,2.06-13,2.22-3.25,5.77-5.11,10.55-5.54,9-.8,14.6,1.19,19.58,2.95C52,74.83,55,75.91,59,76l11.49,0h.21a18.16,18.16,0,0,1,4.42-6.75c8.52-8.22,23.83-8.2,28.31-8a5.24,5.24,0,0,1,.55.09,3.33,3.33,0,0,1,.53-2l-1-1.63c-2.76-4.6-3.44-5.57-4.79-5.75a2.77,2.77,0,0,1-4.09.48H86.88a2.22,2.22,0,0,1,0-4.43h7.78a2.83,2.83,0,0,1,4.46,1c2.88.38,4.13,2.45,6.95,7.15l1,1.63a3.31,3.31,0,0,1,3.12,1.65L124.63,85.5a35.46,35.46,0,0,1,26.61,3.3,2.59,2.59,0,0,1-2.52,4.51,30.73,30.73,0,0,0-45.15,32.34,2.59,2.59,0,0,1-2.09,3,2.92,2.92,0,0,1-.46,0,2.59,2.59,0,0,1-2.54-2.13,36.34,36.34,0,0,1-.58-6.43,35.88,35.88,0,0,1,20.42-32.32l-6.9-12.46c-.2,3.38-1.16,9.74-5.77,12.84H59.37l2.14,4.47H92.78c4.79.18,6.75,2.68,7.48,4.15a8.82,8.82,0,0,1-.58,8.44l-.24.3L76.6,131.72H60.87a28.24,28.24,0,1,1,1.68-9.51,27,27,0,0,1-.18,3.13h7.73L59.3,102.82C56.51,97.42,50.58,94,50.58,94l-1.31-.73a30.86,30.86,0,0,0-28.64-.68,2.39,2.39,0,0,1-.59.3,30.61,30.61,0,0,0-15,17.93,2.59,2.59,0,0,1-2.47,1.81,2.77,2.77,0,0,1-.78-.12,2.59,2.59,0,0,1-1.69-3.25m52.95,12.9A18.83,18.83,0,1,0,34.24,141a18.85,18.85,0,0,0,18.83-18.83M64.57,99l11.37,23.74,18.53-21.21a2.56,2.56,0,0,0,.11-1.88c-.27-.54-1.43-.63-1.92-.66Z"/><path class="cls-2" d="M91.38,0,52.63,21.85h0M87.86,48.25v44h0a10.57,10.57,0,1,1-21.14,0v-44m-7,1.76V92.28a17.61,17.61,0,1,0,35.23,0V50"/><path class="cls-3" d="M87.35,6.23a2.66,2.66,0,0,0-2.94,0,3.51,3.51,0,0,0-1.47,2.64V32.35H71.21V8.87A4.37,4.37,0,0,0,70,6.23a5.62,5.62,0,0,0-1.71-.34,2.15,2.15,0,0,0-1.22.34A28.75,28.75,0,0,0,50.67,32.35,29.32,29.32,0,0,0,62.4,55.82V91a14.68,14.68,0,1,0,29.35,0V55.82a29.32,29.32,0,0,0,11.73-23.47A29,29,0,0,0,87.35,6.23Z"/></g></g></svg>