<svg xmlns="http://www.w3.org/2000/svg" viewBox="0 0 80.18 65.43"><defs><style>.cls-1{fill:#e01b80;}.cls-2{fill:#1e2849;}</style></defs><title>mantenimientos</title><g id="Capa_2" data-name="Capa 2"><g id="Layer_1" data-name="Layer 1"><path class="cls-1" d="M50,.2a1.2,1.2,0,0,0-1.33,0A1.6,1.6,0,0,0,48,1.4V12.08H42.69V1.4A2,2,0,0,0,42.16.2a1.55,1.55,0,0,0-1.33,0,13.07,13.07,0,0,0-7.47,11.87,13.32,13.32,0,0,0,5.34,10.67v16a6.67,6.67,0,1,0,13.34,0v-16a13.32,13.32,0,0,0,5.34-10.67A13.18,13.18,0,0,0,50,.2Z"/><g id="_Grupo_" data-name="&lt;Grupo&gt;"><path class="cls-2" d="M80.18,42.62V52a6.83,6.83,0,0,1-6.81,6.81H70.59a8,8,0,0,1-15.78,0H27.9a8,8,0,0,1-15.78,0H6.67A6.61,6.61,0,0,1,0,52.1v-6a6.76,6.76,0,0,1,5.87-6.67L14,38.35a21.53,21.53,0,0,0,13.34-7.07l1.87-2.13a11.94,11.94,0,0,1,5.07-3.87,1.35,1.35,0,1,1,.93,2.53A10.88,10.88,0,0,0,31.35,31l-2,2.27a23.54,23.54,0,0,1-15.08,7.87L6.14,42.22a3.8,3.8,0,0,0-3.47,3.87v6a3.93,3.93,0,0,0,4,4h5.45a8,8,0,0,1,4.61-6l.16-.07.1,0,.26-.1.07,0,.3-.1.07,0,.3-.09.07,0,.31-.07h.08l.3-.05.09,0,.3,0h.1l.3,0h1l.3,0h.1l.29,0,.09,0,.3.05h.08l.3.07.07,0,.3.09.06,0,.3.1.07,0L23,50l.1,0,.16.07a8,8,0,0,1,4.6,6H54.81a8,8,0,0,1,4.61-6l.16-.07.1,0,.26-.1.07,0,.3-.1.06,0,.31-.09.07,0,.3-.07h.08l.3-.05.09,0,.3,0h.1l.3,0h1l.3,0h.1l.29,0,.09,0,.3.05h.08l.3.07.07,0,.31.09.06,0,.3.1.07,0,.26.1.1,0,.16.07a8,8,0,0,1,4.6,6h2.78a3.93,3.93,0,0,0,4-4V42.76a4,4,0,0,0-3.74-4,12.4,12.4,0,0,1-10-5.73l-.4-.67A9.19,9.19,0,0,0,55.89,28a1.21,1.21,0,0,1-1.2-1.47,1.2,1.2,0,0,1,1.47-1.2,11.9,11.9,0,0,1,9.47,5.6l.4.67A9.91,9.91,0,0,0,73.91,36,6.8,6.8,0,0,1,80.18,42.62ZM68,57.43a5.34,5.34,0,1,0-5.34,5.33A5.35,5.35,0,0,0,68,57.43Zm-42.69,0A5.34,5.34,0,1,0,20,62.77,5.35,5.35,0,0,0,25.35,57.43Z"/></g></g></g></svg>