<svg xmlns="http://www.w3.org/2000/svg" viewBox="0 0 46.56 52.97"><defs><style>.cls-1{fill:#fff;}</style></defs><title>notificaciones</title><g id="Capa_2" data-name="Capa 2"><g id="Layer_1" data-name="Layer 1"><path class="cls-1" d="M46.27,43.62a21.53,21.53,0,0,1-6.76-15.69V19.27A14,14,0,0,0,31.3,6.54a19.36,19.36,0,0,0-3.37-1.17V4.82a4.82,4.82,0,0,0-9.63,0v.64a19.07,19.07,0,0,0-3,1.1c-4.22,1.94-8.49,6.63-8.53,12.71v8.67A21.37,21.37,0,0,1,.28,43.62,1,1,0,0,0,.8,45.25l9.14,1.58c1.7.29,3.27.53,4.76.73A9.72,9.72,0,0,0,23.29,53a9.72,9.72,0,0,0,8.59-5.41c1.49-.2,3-.44,4.74-.73l9.14-1.58a1,1,0,0,0,.52-1.63Zm-26-38.8a2.89,2.89,0,1,1,5.78,0V5a19.15,19.15,0,0,0-5.78,0ZM23.29,51a7.72,7.72,0,0,1-6.18-3.19,59.65,59.65,0,0,0,6.17.33,59.32,59.32,0,0,0,6.19-.34A7.72,7.72,0,0,1,23.29,51Zm13-6.11c-1.85.32-3.54.58-5.14.78h0l-2.06.23h0l-1.81.15-.34,0-1.53.08h-.31c-1.2,0-2.38,0-3.58,0h-.32l-1.51-.08-.36,0L17.55,46h-.06l-2-.23h0c-1.61-.2-3.31-.46-5.16-.78L2.89,43.66A23.18,23.18,0,0,0,8.67,27.93V19.27c0-5.23,3.74-9.28,7.41-11a17.22,17.22,0,0,1,3.37-1.14h0a17.51,17.51,0,0,1,7.3-.07h0a17.42,17.42,0,0,1,3.68,1.2,12.23,12.23,0,0,1,7.09,11v8.67a23.43,23.43,0,0,0,6.08,15.73Z"/><path class="cls-1" d="M29.29,10.92a14.72,14.72,0,0,0-12,0c-2.11,1-5.7,3.83-5.73,8.33a1,1,0,0,0,1,1h0a1,1,0,0,0,1-1c0-3.54,2.91-5.81,4.61-6.6a12.75,12.75,0,0,1,10.4,0,1,1,0,1,0,.8-1.75Z"/></g></g></svg>