<svg id="Layer_1" data-name="Layer 1" xmlns="http://www.w3.org/2000/svg" viewBox="0 0 24 24"><defs><style>.cls-1{fill:#e1167f;}.cls-2{fill:#fff;}</style></defs><title>emoticon-excited2</title><circle class="cls-1" cx="12" cy="12.03" r="10.01"/><path id="path-1" class="cls-2" d="M17,17.58a.4.4,0,0,1-.4-.4,4.64,4.64,0,0,0-9.29,0,.4.4,0,1,1-.8,0,5.45,5.45,0,0,1,10.89,0A.4.4,0,0,1,17,17.58Z"/><path id="path-2" class="cls-2" d="M12,12.38a3.16,3.16,0,1,1,3.16-3.16A3.16,3.16,0,0,1,12,12.38Zm0-5.52a2.36,2.36,0,1,0,2.36,2.36A2.36,2.36,0,0,0,12,6.87Z"/></svg>